<?xml version="1.0"?>
<svg xmlns="http://www.w3.org/2000/svg" height="512px" viewBox="0 -36 512 512" width="512px"><path d="m407 80v-80h-90v80h-122v-60h-90v60h-105v360h90v-15c0-24.8125 20.1875-45 45-45h242c24.8125 0 45 20.1875 45 45v15h90v-360zm-60-50h30v50h-30zm-212 20h30v30h-30zm-73.492188 360h-31.507812v-30h45.054688c-6.566407 8.726562-11.289063 18.917969-13.546876 30zm-31.507812-60v-240h452v240zm452 60h-31.507812c-2.257813-11.082031-6.980469-21.273438-13.546876-30h45.054688zm0 0" fill="#ffdd4a"/><path d="m150 140c-49.625 0-90 40.375-90 90s40.375 90 90 90 90-40.375 90-90-40.375-90-90-90zm0 150c-33.085938 0-60-26.914062-60-60s26.914062-60 60-60 60 26.914062 60 60-26.914062 60-60 60zm0 0" fill="#ffdd4a"/><path d="m128.320312 197.519531-16.640624 24.960938 33.777343 22.519531h34.542969v-30h-25.457031zm0 0" fill="#ffdd4a"/><path d="m362 140c-49.625 0-90 40.375-90 90s40.375 90 90 90 90-40.375 90-90-40.375-90-90-90zm0 150c-33.085938 0-60-26.914062-60-60s26.914062-60 60-60 60 26.914062 60 60-26.914062 60-60 60zm0 0" fill="#ffdd4a"/><path d="m340.320312 197.519531-16.640624 24.960938 33.777343 22.519531h34.542969v-30h-25.457031zm0 0" fill="#ffdd4a"/></svg>
