<?xml version="1.0"?>
<svg xmlns="http://www.w3.org/2000/svg" height="512px" viewBox="0 0 60.134468 60" width="512px"><path d="m56.613281 57.460938-.554687-4.4375c-.046875-.378907-.300782-.695313-.65625-.820313l.332031-.941406c.265625-.757813.222656-1.570313-.121094-2.292969-.214843-.449219-.539062-.820312-.925781-1.105469l1.644531-8.683593c.386719-2.039063 1.511719-3.847657 3.171875-5.089844.296875-.222656.445313-.585938.390625-.949219-.054687-.367187-.308593-.671875-.65625-.792969l-.519531-.183594c.53125-.453124.949219-1.027343 1.1875-1.703124.734375-2.078126-.359375-4.367188-2.4375-5.105469-2.082031-.734375-4.371094.359375-5.105469 2.4375-.242187.691406-.269531 1.402343-.140625 2.074219l-.527344-.1875c-.347656-.125-.734374-.042969-1.007812.203124-.269531.25-.382812.628907-.292969.984376.507813 2.011718.25 4.125-.730469 5.957031l-4.179687 7.785156c-.484375-.019531-.964844.0625-1.414063.277344-.722656.34375-1.269531.953125-1.535156 1.707031l-.332031.941406c-.359375-.125-.757813-.039062-1.03125.222656l-3.21875 3.105469c-.25.242188-.355469.59375-.28125.933594.074219.335937.316406.613281.644531.730469l15.671875 5.539062h-47.839843l15.671874-5.539062c.324219-.117188.570313-.394532.640626-.730469.074218-.339844-.03125-.691406-.28125-.933594l-3.21875-3.105469c-.273438-.261718-.671876-.347656-1.027344-.222656l-.332032-.941406c-.269531-.753906-.8125-1.363281-1.539062-1.707031-.445312-.214844-.929688-.296875-1.414062-.277344l-4.175782-7.785156c-.980468-1.832031-1.242187-3.945313-.730468-5.957031.089843-.355469-.023438-.734376-.296876-.984376-.273437-.246093-.660156-.324218-1.007812-.203124l-.523438.1875c.128907-.671876.101563-1.382813-.144531-2.074219-.734375-2.078125-3.019531-3.167969-5.101562-2.4375-2.082031.738281-3.175781 3.027343-2.4375 5.105469.238281.675781.65625 1.25 1.1875 1.703124l-.523438.183594c-.347656.121094-.597656.425782-.65625.792969-.054687.363281.097657.726563.390625.949219 1.660156 1.242187 2.789063 3.050781 3.175782 5.089844l1.644531 8.683593c-.390625.285157-.714844.65625-.925781 1.105469-.347657.722656-.390626 1.535156-.125 2.292969l.335937.941406c-.359375.125-.613281.441406-.660156.820313l-.550781 4.4375c-.027344.214843.023437.421874.125.605468h-3.5820318v2h59.9999998v-2h-3.582031c.101563-.183594.152344-.390625.128906-.605468zm-2.363281-29c.289062-.820313 1.0625-1.332032 1.886719-1.332032.21875 0 .445312.035156.664062.113282.503907.179687.90625.542968 1.136719 1.023437s.261719 1.023437.082031 1.527344c-.179687.503906-.542969.910156-1.023437 1.140625-.480469.230468-1.023438.257812-1.527344.082031v-.003906c-1.039062-.367188-1.585938-1.511719-1.21875-2.550781zm-2.824219 9.308593c.933594-1.746093 1.339844-3.699219 1.191407-5.640625l2.183593.769532 2.183594.773437c-1.339844 1.417969-2.25 3.191406-2.617187 5.136719l-1.5625 8.234375-.632813-.222657-4.710937-1.667968zm-6.492187 8.921875c.238281-.117187.511718-.128906.761718-.039062l7.542969 2.664062c.253907.089844.453125.273438.570313.511719.113281.242187.128906.515625.039062.765625l-.332031.941406-9.429687-3.332031.335937-.941406c.085937-.253907.269531-.457031.511719-.570313zm-2.816406 2.9375.359374.125 11.3125 4c.003907.003906.003907 0 .003907.003906l.359375.125.273437 2.21875-13.917969-4.921874zm-22.492188 1.550782-13.917969 4.921874.277344-2.21875.355469-.125c.003906-.003906.003906 0 .003906-.003906l11.3125-4 .359375-.125zm-3.910156-3.917969.332031.941406-9.425781 3.332031-.335938-.941406c-.089844-.25-.074218-.523438.042969-.765625.113281-.238281.316406-.421875.566406-.511719l7.542969-2.664062c.109375-.039063.222656-.058594.335938-.058594.144531 0 .292968.03125.429687.097656.238281.113282.421875.316406.511719.570313zm-12.578125-16.328125c-.480469-.230469-.84375-.636719-1.023438-1.140625-.175781-.503907-.148437-1.046875.082031-1.527344.230469-.480469.632813-.84375 1.136719-1.023437.222657-.078126.445313-.113282.667969-.113282.824219 0 1.597656.511719 1.886719 1.332032.367187 1.039062-.179688 2.183593-1.21875 2.550781v.003906c-.503907.175781-1.046875.148437-1.53125-.082031zm.015625 2.738281 2.179687-.773437h.003907l2.179687-.769532c-.148437 1.941406.257813 3.894532 1.195313 5.640625l3.960937 7.382813-4.710937 1.667968-.632813.222657-1.558594-8.234375c-.371093-1.945313-1.28125-3.71875-2.617187-5.136719zm0 0" fill="#fe9000"/><path d="m28.773438 13.359375c-.316407-.316406-.8125-.382813-1.203126-.160156-4.515624 2.578125-6.730468 7.890625-5.390624 12.914062l.660156 2.484375c.554687 2.074219.441406 4.214844.324218 6.484375-.046874.902344-.089843 1.832031-.09375 2.761719-.609374.550781-1.003906 1.339844-1.003906 2.222656v1c-.378906 0-.722656.214844-.894531.554688l-2 4c-.152344.308594-.136719.675781.042969.972656.183594.292969.503906.472656.851562.472656h20c.347656 0 .667969-.179687.851563-.472656.183593-.296875.199219-.664062.042969-.972656l-2-4c-.167969-.339844-.515626-.554688-.894532-.554688v-1c0-.890625-.394531-1.679687-1.015625-2.230468-.078125-3.378907-1.847656-6.585938-3.425781-9.425782l-.945312-1.699218 2.78125 1.589843c1.042968.597657 2.367187.421875 3.21875-.429687.980468-.984375 1.042968-2.578125.136718-3.632813l-4.597656-5.363281 1.777344-4.4375c.148437-.371094.0625-.792969-.222656-1.078125-.28125-.28125-.707032-.367187-1.078126-.222656l-4.386718 1.757812zm9.675781 31.707031h-16.765625l1-2h14.765625zm-14.382813-4v-1c0-.550781.449219-1 1-1h10c.550782 0 1 .449219 1 1v1zm9.207032-25.203125-1.136719 2.832031c-.136719.347657-.070313.738282.171875 1.023438l4.992187 5.824219c.226563.265625.210938.664062-.035156.914062-.214844.214844-.546875.257813-.8125.109375l-5.890625-3.367187c-.386719-.222657-.878906-.160157-1.199219.15625-.316406.316406-.386719.804687-.171875 1.199219l2.683594 4.828124c1.328125 2.386719 2.8125 5.054688 3.128906 7.683594h-9.921875c.015625-.628906.050781-1.261718.082031-1.878906.117188-2.324219.242188-4.726562-.390624-7.105469l-.664063-2.484375c-1.039063-3.902344.519531-8.015625 3.8125-10.261718l1.4375 1.4375c.285156.285156.707031.371093 1.078125.222656zm0 0" fill="#fe9000"/><path d="m1.066406 11.066406h13.585938l2.707031 2.707032c.1875.1875.441406.292968.707031.292968h6c.554688 0 1-.445312 1-1v-2c0-.808594-.316406-1.566406-.871094-2.105468-.5625-.578126-1.316406-.894532-2.128906-.894532h-1v-2h4.585938l1.414062 1.414063v1.585937c0 1.65625 1.347656 3 3 3 1.65625 0 3-1.34375 3-3v-4c0-.265625-.105468-.519531-.292968-.707031l-4-4c-.1875-.1875-.441407-.2929688-.707032-.2929688h-27c-.550781 0-.9999998.4492188-.9999998.9999998v9c0 .554688.4492188 1 .9999998 1zm30-5.585937v3.585937c0 .550782-.449218 1-1 1-.550781 0-1-.449218-1-1v-2c0-.265625-.105468-.519531-.292968-.707031l-2-2c-.1875-.1875-.441407-.292969-.707032-.292969h-6c-.550781 0-1 .449219-1 1v4c0 .554688.449219 1 1 1h2c.269532 0 .515625.101563.714844.308594.183594.179688.285156.425781.285156.691406v1h-4.585937l-2.707031-2.707031c-.1875-.1875-.441407-.292969-.707032-.292969h-3v-7h15.585938zm-29-3.414063h8v7h-8zm0 0" fill="#fe9000"/></svg>
